<?xml version="1.0" encoding="utf-8"?>
<!-- Generator: Adobe Illustrator 15.0.0, SVG Export Plug-In . SVG Version: 6.00 Build 0)  -->
<!DOCTYPE svg PUBLIC "-//W3C//DTD SVG 1.1//EN" "http://www.w3.org/Graphics/SVG/1.1/DTD/svg11.dtd">
<svg version="1.1" id="Layer_1" xmlns="http://www.w3.org/2000/svg" xmlns:xlink="http://www.w3.org/1999/xlink" x="0px" y="0px"
	 width="172px" height="30px" viewBox="0 0 172 30" enable-background="new 0 0 172 30" xml:space="preserve">
<g>
	<path fill="#FCD616" d="M16,0c-0.234,0-0.468,0.262-0.646,0.787l-3.4,10.043l-0.107-0.001l-0.032,0.103l-10.603,0.13
		c-1.108,0.014-1.288,0.567-0.399,1.229l8.501,6.338l-0.034,0.102l0.087,0.062L6.214,28.918c-0.33,1.058,0.141,1.399,1.045,0.76
		l8.654-6.127L16,23.615v-0.001V0z"/>
</g>
<g>
	<path fill="#FFFF00" d="M16,0c0.234,0,0.469,0.262,0.646,0.787l3.4,10.043l0.107-0.001l0.031,0.103l10.604,0.13
		c1.108,0.014,1.288,0.567,0.399,1.229l-8.501,6.338l0.033,0.102l-0.087,0.062l3.152,10.124c0.33,1.058-0.141,1.399-1.046,0.76
		l-8.654-6.127L16,23.615v-0.001V0z"/>
</g>
<g>
	<path fill="#FCD616" d="M51,0c-0.234,0-0.469,0.262-0.646,0.787l-3.4,10.043l-0.107-0.001l-0.031,0.103l-10.604,0.13
		c-1.108,0.014-1.288,0.567-0.399,1.229l8.501,6.338l-0.033,0.102l0.087,0.062l-3.152,10.124c-0.329,1.058,0.141,1.399,1.046,0.76
		l8.654-6.127L51,23.615v-0.001V0z"/>
</g>
<g>
	<path fill="#FFFF00" d="M51,0c0.234,0,0.469,0.262,0.646,0.787l3.4,10.043l0.107-0.001l0.031,0.103l10.604,0.13
		c1.108,0.014,1.288,0.567,0.399,1.229l-8.501,6.338l0.033,0.102l-0.087,0.062l3.152,10.124c0.33,1.058-0.141,1.399-1.046,0.76
		l-8.654-6.127L51,23.615v-0.001V0z"/>
</g>
<g>
	<path fill="#FCD616" d="M86,0c-0.234,0-0.469,0.262-0.646,0.787l-3.4,10.043l-0.107-0.001l-0.031,0.103l-10.604,0.13
		c-1.108,0.014-1.288,0.567-0.399,1.229l8.501,6.338l-0.033,0.102l0.087,0.062l-3.152,10.124c-0.329,1.058,0.141,1.399,1.046,0.76
		l8.654-6.127L86,23.615v-0.001V0z"/>
</g>
<g>
	<path fill="#FFFF00" d="M86,0c0.234,0,0.469,0.262,0.646,0.787l3.4,10.043l0.107-0.001l0.031,0.103l10.604,0.13
		c1.108,0.014,1.288,0.567,0.399,1.229l-8.501,6.338l0.033,0.102l-0.087,0.062l3.152,10.124c0.33,1.058-0.141,1.399-1.046,0.76
		l-8.654-6.127L86,23.615v-0.001V0z"/>
</g>
<g>
	<path fill="#FCD616" d="M121,0c-0.234,0-0.469,0.262-0.646,0.787l-3.4,10.043l-0.107-0.001l-0.031,0.103l-10.604,0.13
		c-1.108,0.014-1.288,0.567-0.399,1.229l8.501,6.338l-0.033,0.102l0.087,0.062l-3.152,10.124c-0.329,1.058,0.141,1.399,1.046,0.76
		l8.654-6.127L121,23.615v-0.001V0z"/>
</g>
<g>
	<path fill="#FFFF00" d="M121,0c0.234,0,0.469,0.262,0.646,0.787l3.4,10.043l0.107-0.001l0.031,0.103l10.604,0.13
		c1.108,0.014,1.288,0.567,0.399,1.229l-8.501,6.338l0.033,0.102l-0.087,0.062l3.152,10.124c0.33,1.058-0.141,1.399-1.046,0.76
		l-8.654-6.127L121,23.615v-0.001V0z"/>
</g>
<g>
	<path fill="#FCD616" d="M156,0c-0.234,0-0.469,0.262-0.646,0.787l-3.4,10.043l-0.107-0.001l-0.031,0.103l-10.604,0.13
		c-1.108,0.014-1.288,0.567-0.399,1.229l8.501,6.338l-0.033,0.102l0.087,0.062l-3.152,10.124c-0.329,1.058,0.141,1.399,1.046,0.76
		l8.654-6.127L156,23.615v-0.001V0z"/>
</g>
<g>
	<path fill="#FFFF00" d="M156,0c0.234,0,0.469,0.262,0.646,0.787l3.4,10.043l0.107-0.001l0.031,0.103l10.604,0.13
		c1.108,0.014,1.288,0.567,0.399,1.229l-8.501,6.338l0.033,0.102l-0.087,0.062l3.152,10.124c0.33,1.058-0.141,1.399-1.046,0.76
		l-8.654-6.127L156,23.615v-0.001V0z"/>
</g>
</svg>
